<svg width="134" height="136" viewBox="0 0 134 136" fill="none" xmlns="http://www.w3.org/2000/svg">
<g clip-path="url(#clip0_2099_12015)">
<path d="M92.3644 26.727L87.4716 28.7647L85.4054 23.8035C82.9047 17.7989 75.9865 14.9503 69.9837 17.4503L11.532 41.7934C5.52742 44.2941 2.67808 51.2105 5.17877 57.2151L19.4533 91.4904C21.954 97.495 28.8722 100.344 34.8749 97.8436L39.7692 95.8053L41.8354 100.767C44.3361 106.771 51.2551 109.621 57.2578 107.122L101.378 88.7472L115.078 95.7734C115.549 96.0162 116.094 96.0282 116.564 95.8324C116.751 95.7543 116.927 95.6412 117.083 95.4974C117.628 94.9927 117.801 94.2026 117.516 93.52L113.437 83.7248L115.708 82.7791C121.713 80.2784 124.561 73.3601 122.061 67.3556L107.787 33.082C105.288 27.0767 98.3689 24.2263 92.3644 26.727ZM33.5152 94.5786C29.3112 96.3294 24.4691 94.3346 22.7183 90.1306L8.44383 55.8553C6.69379 51.6532 8.68962 46.8085 12.8918 45.0585L71.342 20.716C75.5459 18.9652 80.3888 20.9617 82.1388 25.1639L84.205 30.1251L33.9144 51.0694C27.9099 53.5701 25.0613 60.4883 27.562 66.4929L38.4098 92.5401L33.5152 94.5786ZM118.797 68.7149C120.547 72.9171 118.552 77.7632 114.35 79.5133L110.447 81.1389C109.546 81.5142 109.118 82.5485 109.494 83.4513L112.397 90.4224L102.264 85.2252C101.801 84.987 101.257 84.9663 100.777 85.1662L55.8985 103.857C51.6945 105.607 46.8511 103.609 45.101 99.4072L43.0348 94.446L41.6751 91.181L30.8273 65.1337C29.0765 60.9298 31.0724 56.0854 35.2746 54.3354L85.567 33.3903L88.832 32.0305L93.7263 29.9922C97.9303 28.2414 102.773 30.238 104.524 34.4417L118.797 68.7149Z" fill="#664FE7" fill-opacity="0.7"/>
</g>
<defs>
<clipPath id="clip0_2099_12015">
<rect width="104" height="104" fill="white" transform="translate(-1.99512 39.9883) rotate(-22.61)"/>
</clipPath>
</defs>
</svg>
